<svg width="22" height="22" viewBox="0 0 22 22" fill="none" xmlns="http://www.w3.org/2000/svg">
<ellipse cx="10.6141" cy="6.67153" rx="4.37986" ry="4.37986" stroke="#807A7A" stroke-width="1.5" stroke-linecap="round" stroke-linejoin="round"/>
<path fill-rule="evenodd" clip-rule="evenodd" d="M3.66669 17.1429C3.66551 16.835 3.73437 16.5309 3.86806 16.2535C4.28759 15.4145 5.47065 14.9698 6.45235 14.7684C7.16034 14.6173 7.87812 14.5164 8.60033 14.4663C9.93744 14.3489 11.2823 14.3489 12.6194 14.4663C13.3415 14.517 14.0593 14.6179 14.7674 14.7684C15.7491 14.9698 16.9321 15.3725 17.3517 16.2535C17.6205 16.8189 17.6205 17.4753 17.3517 18.0407C16.9321 18.9217 15.7491 19.3245 14.7674 19.5174C14.0602 19.6748 13.3422 19.7786 12.6194 19.8279C11.5311 19.9202 10.4377 19.937 9.34708 19.8782C9.09537 19.8782 8.85204 19.8782 8.60033 19.8279C7.88025 19.7792 7.16496 19.6754 6.46074 19.5174C5.47065 19.3245 4.29598 18.9217 3.86806 18.0407C3.73505 17.7601 3.66626 17.4534 3.66669 17.1429Z" stroke="#807A7A" stroke-width="1.5" stroke-linecap="round" stroke-linejoin="round"/>
</svg>
