<svg width="18" height="18" viewBox="0 0 18 18" fill="none" xmlns="http://www.w3.org/2000/svg">
<g clip-path="url(#clip0_1001_8954)">
<path d="M16.1249 3H14.4999V4H15.9999V15H1.99988V4H3.49988V3H1.87488C1.758 3.00195 1.64265 3.02691 1.53542 3.07345C1.42818 3.11999 1.33117 3.1872 1.24992 3.27125C1.16866 3.35529 1.10476 3.45451 1.06186 3.56325C1.01896 3.67199 0.997898 3.78812 0.999884 3.905V15.095C0.997898 15.2119 1.01896 15.328 1.06186 15.4367C1.10476 15.5455 1.16866 15.6447 1.24992 15.7288C1.33117 15.8128 1.42818 15.88 1.53542 15.9265C1.64265 15.9731 1.758 15.998 1.87488 16H16.1249C16.2418 15.998 16.3571 15.9731 16.4644 15.9265C16.5716 15.88 16.6686 15.8128 16.7499 15.7288C16.8311 15.6447 16.895 15.5455 16.9379 15.4367C16.9808 15.328 17.0019 15.2119 16.9999 15.095V3.905C17.0019 3.78812 16.9808 3.67199 16.9379 3.56325C16.895 3.45451 16.8311 3.35529 16.7499 3.27125C16.6686 3.1872 16.5716 3.11999 16.4644 3.07345C16.3571 3.02691 16.2418 3.00195 16.1249 3Z" fill="black"/>
<path d="M4 7H5V8H4V7Z" fill="black"/>
<path d="M7 7H8V8H7V7Z" fill="black"/>
<path d="M10 7H11V8H10V7Z" fill="black"/>
<path d="M13 7H14V8H13V7Z" fill="black"/>
<path d="M4 9.5H5V10.5H4V9.5Z" fill="black"/>
<path d="M7 9.5H8V10.5H7V9.5Z" fill="black"/>
<path d="M10 9.5H11V10.5H10V9.5Z" fill="black"/>
<path d="M13 9.5H14V10.5H13V9.5Z" fill="black"/>
<path d="M4 12H5V13H4V12Z" fill="black"/>
<path d="M7 12H8V13H7V12Z" fill="black"/>
<path d="M10 12H11V13H10V12Z" fill="black"/>
<path d="M13 12H14V13H13V12Z" fill="black"/>
<path d="M5 5C5.13261 5 5.25979 4.94732 5.35355 4.85355C5.44732 4.75979 5.5 4.63261 5.5 4.5V1.5C5.5 1.36739 5.44732 1.24021 5.35355 1.14645C5.25979 1.05268 5.13261 1 5 1C4.86739 1 4.74021 1.05268 4.64645 1.14645C4.55268 1.24021 4.5 1.36739 4.5 1.5V4.5C4.5 4.63261 4.55268 4.75979 4.64645 4.85355C4.74021 4.94732 4.86739 5 5 5Z" fill="black"/>
<path d="M13 5C13.1326 5 13.2598 4.94732 13.3536 4.85355C13.4473 4.75979 13.5 4.63261 13.5 4.5V1.5C13.5 1.36739 13.4473 1.24021 13.3536 1.14645C13.2598 1.05268 13.1326 1 13 1C12.8674 1 12.7402 1.05268 12.6464 1.14645C12.5527 1.24021 12.5 1.36739 12.5 1.5V4.5C12.5 4.63261 12.5527 4.75979 12.6464 4.85355C12.7402 4.94732 12.8674 5 13 5Z" fill="black"/>
<path d="M6.5 3H11.5V4H6.5V3Z" fill="black"/>
</g>
<defs>
<clipPath id="clip0_1001_8954">
<rect width="18" height="18" fill="white"/>
</clipPath>
</defs>
</svg>
