<svg width="8" height="8" viewBox="0 0 8 8" fill="none" xmlns="http://www.w3.org/2000/svg">
<path d="M7.15011 0.85499C7.10385 0.808638 7.04891 0.771864 6.98842 0.746773C6.92794 0.721683 6.8631 0.708768 6.79761 0.708768C6.73213 0.708768 6.66729 0.721683 6.6068 0.746773C6.54631 0.771864 6.49137 0.808638 6.44511 0.85499L4.00011 3.29499L1.55511 0.84999C1.50882 0.803699 1.45387 0.766979 1.39338 0.741926C1.3329 0.716874 1.26808 0.703979 1.20261 0.703979C1.13715 0.703979 1.07232 0.716874 1.01184 0.741926C0.951358 0.766979 0.896403 0.803699 0.850112 0.84999C0.803821 0.896281 0.767101 0.951236 0.742048 1.01172C0.716996 1.0722 0.704102 1.13702 0.704102 1.20249C0.704102 1.26796 0.716996 1.33278 0.742048 1.39326C0.767101 1.45374 0.803821 1.5087 0.850112 1.55499L3.29511 3.99999L0.850112 6.44499C0.803821 6.49128 0.767101 6.54624 0.742048 6.60672C0.716996 6.6672 0.704102 6.73202 0.704102 6.79749C0.704102 6.86295 0.716996 6.92778 0.742048 6.98826C0.767101 7.04874 0.803821 7.1037 0.850112 7.14999C0.896403 7.19628 0.951358 7.233 1.01184 7.25805C1.07232 7.28311 1.13715 7.296 1.20261 7.296C1.26808 7.296 1.3329 7.28311 1.39338 7.25805C1.45387 7.233 1.50882 7.19628 1.55511 7.14999L4.00011 4.70499L6.44511 7.14999C6.4914 7.19628 6.54636 7.233 6.60684 7.25805C6.66732 7.28311 6.73215 7.296 6.79761 7.296C6.86308 7.296 6.9279 7.28311 6.98838 7.25805C7.04887 7.233 7.10382 7.19628 7.15011 7.14999C7.1964 7.1037 7.23312 7.04874 7.25817 6.98826C7.28323 6.92778 7.29612 6.86295 7.29612 6.79749C7.29612 6.73202 7.28323 6.6672 7.25817 6.60672C7.23312 6.54624 7.1964 6.49128 7.15011 6.44499L4.70511 3.99999L7.15011 1.55499C7.34011 1.36499 7.34011 1.04499 7.15011 0.85499Z" fill="black"/>
</svg>
