<svg width="24" height="24" viewBox="0 0 24 24" fill="none" xmlns="http://www.w3.org/2000/svg">
<g clip-path="url(#clip0_264_716)">
<g clip-path="url(#clip1_264_716)">
<path d="M22.5 17.9023V19.4023H0V17.9023H1.5V11.1523C1.5 10.6367 1.59766 10.1523 1.79297 9.69922C1.98828 9.24609 2.25391 8.85156 2.58984 8.51562C2.92578 8.17969 3.32422 7.91016 3.78516 7.70703C4.24609 7.50391 4.73438 7.40234 5.25 7.40234H10.5V3.27734C10.5 3.20703 10.5273 3.14844 10.582 3.10156C10.6367 3.05469 10.707 3.01562 10.793 2.98438C10.8789 2.95312 10.9648 2.93359 11.0508 2.92578C11.1367 2.91797 11.2031 2.91016 11.25 2.90234C11.2969 2.90234 11.3633 2.90625 11.4492 2.91406C11.5352 2.92188 11.6172 2.94141 11.6953 2.97266C11.7734 3.00391 11.8438 3.04297 11.9062 3.08984C11.9688 3.13672 12 3.19922 12 3.27734V7.40234H17.25C17.7656 7.40234 18.25 7.5 18.7031 7.69531C19.1562 7.89062 19.5508 8.16016 19.8867 8.50391C20.2227 8.84766 20.4922 9.24609 20.6953 9.69922C20.8984 10.1523 21 10.6367 21 11.1523V17.9023H22.5ZM5.25 8.90234C4.96094 8.90234 4.6875 8.95312 4.42969 9.05469C4.17188 9.15625 3.94531 9.29688 3.75 9.47656C3.55469 9.65625 3.39062 9.86719 3.25781 10.1094C3.125 10.3516 3.04297 10.6172 3.01172 10.9062C3.30078 11.2266 3.63672 11.4727 4.01953 11.6445C4.40234 11.8164 4.8125 11.9023 5.25 11.9023C5.76562 11.9023 6.21094 11.8008 6.58594 11.5977C6.96094 11.3945 7.31641 11.0977 7.65234 10.707C7.73828 10.6133 7.82422 10.5391 7.91016 10.4844C7.99609 10.4297 8.10938 10.4023 8.25 10.4023C8.38281 10.4023 8.49219 10.4297 8.57812 10.4844C8.66406 10.5391 8.75391 10.6133 8.84766 10.707C9.17578 11.0898 9.52734 11.3828 9.90234 11.5859C10.2773 11.7891 10.7266 11.8945 11.25 11.9023C11.7656 11.9023 12.2109 11.8008 12.5859 11.5977C12.9609 11.3945 13.3164 11.0977 13.6523 10.707C13.7383 10.6133 13.8242 10.5391 13.9102 10.4844C13.9961 10.4297 14.1094 10.4023 14.25 10.4023C14.3828 10.4023 14.4922 10.4297 14.5781 10.4844C14.6641 10.5391 14.7539 10.6133 14.8477 10.707C15.1758 11.0898 15.5273 11.3828 15.9023 11.5859C16.2773 11.7891 16.7266 11.8945 17.25 11.9023C17.6797 11.9023 18.0859 11.8164 18.4688 11.6445C18.8516 11.4727 19.1914 11.2266 19.4883 10.9062C19.457 10.625 19.3789 10.3633 19.2539 10.1211C19.1289 9.87891 18.9648 9.66406 18.7617 9.47656C18.5586 9.28906 18.3281 9.14844 18.0703 9.05469C17.8125 8.96094 17.5391 8.91016 17.25 8.90234H5.25ZM3 17.9023H19.5V12.8047C19.125 12.9922 18.7617 13.1367 18.4102 13.2383C18.0586 13.3398 17.6719 13.3945 17.25 13.4023C16.6875 13.4023 16.1523 13.3086 15.6445 13.1211C15.1367 12.9336 14.6719 12.6484 14.25 12.2656C13.8281 12.6406 13.3633 12.9219 12.8555 13.1094C12.3477 13.2969 11.8125 13.3945 11.25 13.4023C10.6875 13.4023 10.1523 13.3086 9.64453 13.1211C9.13672 12.9336 8.67188 12.6484 8.25 12.2656C7.82812 12.6406 7.36328 12.9219 6.85547 13.1094C6.34766 13.2969 5.8125 13.3945 5.25 13.4023C4.82812 13.4023 4.44141 13.3516 4.08984 13.25C3.73828 13.1484 3.375 13 3 12.8047V17.9023ZM11.25 1.40234C11.0469 1.40234 10.8711 1.32812 10.7227 1.17969C10.5742 1.03125 10.5 0.855469 10.5 0.652344C10.5 0.558594 10.5312 0.4375 10.5938 0.289062C10.6562 0.140625 10.7266 -0.015625 10.8047 -0.179688C10.8828 -0.34375 10.9648 -0.5 11.0508 -0.648438C11.1367 -0.796875 11.2031 -0.914062 11.25 -1C11.2969 -0.914062 11.3594 -0.796875 11.4375 -0.648438C11.5156 -0.5 11.5977 -0.34375 11.6836 -0.179688C11.7695 -0.015625 11.8438 0.140625 11.9062 0.289062C11.9688 0.4375 12 0.558594 12 0.652344C12 0.855469 11.9258 1.03125 11.7773 1.17969C11.6289 1.32812 11.4531 1.40234 11.25 1.40234Z" fill="#807A7A"/>
</g>
</g>
<defs>
<clipPath id="clip0_264_716">
<rect width="24" height="24" fill="white"/>
</clipPath>
<clipPath id="clip1_264_716">
<rect width="24" height="24" fill="white"/>
</clipPath>
</defs>
</svg>
