<svg width="21" height="20" viewBox="0 0 21 20" fill="none" xmlns="http://www.w3.org/2000/svg">
<path opacity="0.4" fill-rule="evenodd" clip-rule="evenodd" d="M7.90433 4.21885H12.9567V3.04248H7.90433V4.21885ZM6.75508 3.09067V3.09653C6.36068 3.1324 5.97051 3.21073 5.59093 3.32858V3.32419C5.57964 3.32894 5.56902 3.33259 5.55882 3.33609C5.54544 3.3407 5.53279 3.34504 5.52037 3.35128C5.49003 3.3586 5.4604 3.36958 5.43218 3.38349C5.34893 3.41057 5.26567 3.44278 5.18736 3.47572C5.16654 3.48377 5.14573 3.49311 5.12491 3.50244C5.1041 3.51177 5.08329 3.52111 5.06247 3.52916C5.0339 3.5427 5.0041 3.55752 4.97429 3.57234L4.97428 3.57235C4.94447 3.58717 4.91466 3.602 4.88609 3.61554L4.74498 3.69679C4.71889 3.7101 4.69474 3.72571 4.67009 3.74163L4.67009 3.74163L4.67009 3.74163C4.65542 3.75111 4.64057 3.76071 4.62503 3.77C4.41267 3.90689 4.21582 4.0672 4.03802 4.24948L4.02744 4.26046C4.00409 4.28768 3.98083 4.31409 3.9579 4.34014L3.95789 4.34015L3.95789 4.34015C3.91915 4.38415 3.8813 4.42714 3.84541 4.47128L3.83482 4.48153C3.25769 5.27798 2.96841 6.25962 3.01851 7.25445V7.56996H4.15796V7.25152C4.15796 5.86506 4.59964 5.002 5.58246 4.55986C5.95781 4.40101 6.35433 4.30291 6.7579 4.26704H6.76848V3.0958L6.75508 3.09067ZM16.994 4.46697L16.9989 4.47722C17.5753 5.2744 17.8632 6.25678 17.8124 7.25161V7.57004H16.6737V7.24356C16.6976 6.65647 16.5798 6.07231 16.3301 5.54452C16.0902 5.09286 15.7064 4.74221 15.2428 4.55189C14.8738 4.39304 14.4829 4.29421 14.0843 4.25908V3.09369C14.4787 3.13029 14.8689 3.20788 15.2492 3.32574V3.31988C15.2705 3.32958 15.2868 3.33535 15.3148 3.34524L15.3197 3.34697C15.3327 3.35156 15.3448 3.35615 15.3568 3.36069C15.3735 3.367 15.3898 3.37322 15.4079 3.37918C15.4859 3.40477 15.5589 3.43494 15.6339 3.46598L15.6471 3.47141C15.6817 3.48358 15.7144 3.49867 15.7438 3.51226C15.7533 3.51666 15.7625 3.52091 15.7713 3.52485C15.8334 3.55194 15.8969 3.58415 15.9477 3.61123C15.9815 3.62881 16.0145 3.64763 16.0455 3.66527C16.0622 3.67481 16.0784 3.68401 16.0937 3.69249C16.119 3.70645 16.141 3.72138 16.1621 3.73574C16.1775 3.74624 16.1925 3.75642 16.208 3.76569C16.4211 3.90331 16.62 4.06436 16.8 4.24517L16.8063 4.25615C16.8726 4.32276 16.9354 4.39304 16.994 4.46697Z" fill="#2C3550"/>
<path d="M14.1171 2.27376V4.86593C14.1171 5.19254 13.852 5.45708 13.5248 5.45708C13.1977 5.45708 12.9326 5.19254 12.9326 4.86593V2.27967C12.9297 1.95307 13.1932 1.68631 13.5204 1.6841C13.8476 1.68188 14.1148 1.9442 14.1171 2.27081V2.27376Z" fill="#2C3550"/>
<path d="M7.89877 2.28368V4.86944C7.89877 5.19746 7.63344 5.46343 7.30619 5.46343C6.97895 5.46343 6.71436 5.19746 6.71436 4.86944V2.28368C6.71436 1.95566 6.97895 1.69043 7.30619 1.69043C7.63344 1.69043 7.89877 1.95566 7.89877 2.28368Z" fill="#2C3550"/>
<path fill-rule="evenodd" clip-rule="evenodd" d="M3.01294 13.9478V7.56982H17.8181V13.9478C17.8181 16.729 16.2649 18.1342 13.1867 18.1342H7.63736C4.56618 18.1342 3.01294 16.729 3.01294 13.9478ZM9.73424 11.1153C9.73424 11.5012 10.0449 11.8143 10.4191 11.8143C10.7933 11.8143 11.0969 11.5012 11.0969 11.1081C11.0969 10.7295 10.7933 10.4164 10.4191 10.4091H10.412C10.0378 10.4164 9.73424 10.7295 9.73424 11.1153ZM13.801 11.8142C13.4268 11.8142 13.1232 11.5012 13.1232 11.1153C13.1232 10.7294 13.4197 10.4163 13.801 10.4163C14.1751 10.4163 14.4787 10.7294 14.4787 11.1153C14.4787 11.5012 14.1751 11.8142 13.801 11.8142ZM13.8008 14.7993C13.4266 14.7993 13.123 14.4862 13.116 14.1003C13.116 13.7144 13.4195 13.4013 13.7937 13.4013H13.8008C14.175 13.4013 14.4786 13.7144 14.4786 14.1003C14.4786 14.4862 14.175 14.7993 13.8008 14.7993ZM10.4191 14.7993C10.0449 14.7993 9.73424 14.4862 9.73424 14.1004C9.73424 13.7145 10.0378 13.4014 10.412 13.3941H10.4191C10.7933 13.4014 11.0898 13.7145 11.0969 14.0931C11.0969 14.4862 10.7933 14.7993 10.4191 14.7993ZM6.3524 11.1154C6.3524 11.5013 6.65599 11.8144 7.03018 11.8144C7.41143 11.8144 7.71502 11.494 7.70796 11.1081C7.70796 10.7223 7.40437 10.4092 7.03724 10.4092H7.03018C6.65599 10.4092 6.3524 10.7295 6.3524 11.1154ZM7.03013 14.7993C6.65594 14.7993 6.35235 14.4862 6.35235 14.1004C6.34529 13.7145 6.64888 13.3941 7.03013 13.3941C7.40432 13.3941 7.7079 13.7072 7.7079 14.0931C7.7079 14.479 7.40432 14.7993 7.03013 14.7993Z" fill="#2C3550"/>
</svg>
