<svg width="20" height="20" viewBox="0 0 20 20" fill="none" xmlns="http://www.w3.org/2000/svg">
<path d="M9.87652 0.226685C4.55572 0.226685 0.226807 4.5556 0.226807 9.8764C0.226807 15.1972 4.55572 19.5261 9.87652 19.5261C15.1973 19.5261 19.5262 15.1972 19.5262 9.8764C19.5262 4.5556 15.1973 0.226685 9.87652 0.226685ZM11.3611 14.3301H8.39195C8.19508 14.3301 8.00628 14.2519 7.86707 14.1127C7.72787 13.9735 7.64966 13.7847 7.64966 13.5878C7.64966 13.391 7.72787 13.2022 7.86707 13.0629C8.00628 12.9237 8.19508 12.8455 8.39195 12.8455H11.3611C11.558 12.8455 11.7468 12.9237 11.886 13.0629C12.0252 13.2022 12.1034 13.391 12.1034 13.5878C12.1034 13.7847 12.0252 13.9735 11.886 14.1127C11.7468 14.2519 11.558 14.3301 11.3611 14.3301ZM13.5879 11.361H6.16509C5.96822 11.361 5.77942 11.2828 5.64022 11.1436C5.50101 11.0044 5.4228 10.8155 5.4228 10.6187C5.4228 10.4218 5.50101 10.233 5.64022 10.0938C5.77942 9.9546 5.96822 9.8764 6.16509 9.8764H13.5879C13.7848 9.8764 13.9736 9.9546 14.1128 10.0938C14.252 10.233 14.3302 10.4218 14.3302 10.6187C14.3302 10.8155 14.252 11.0044 14.1128 11.1436C13.9736 11.2828 13.7848 11.361 13.5879 11.361ZM15.0725 8.39182H4.68052C4.48365 8.39182 4.29485 8.31362 4.15564 8.17441C4.01644 8.03521 3.93823 7.84641 3.93823 7.64954C3.93823 7.45267 4.01644 7.26387 4.15564 7.12466C4.29485 6.98546 4.48365 6.90725 4.68052 6.90725H15.0725C15.2694 6.90725 15.4582 6.98546 15.5974 7.12466C15.7366 7.26387 15.8148 7.45267 15.8148 7.64954C15.8148 7.84641 15.7366 8.03521 15.5974 8.17441C15.4582 8.31362 15.2694 8.39182 15.0725 8.39182Z" fill="#A29EF0"/>
</svg>
