<svg width="20" height="14" viewBox="0 0 20 14" fill="none" xmlns="http://www.w3.org/2000/svg">
<path d="M9.89614 0.321289C8.19611 0.321289 6.81798 1.93028 6.81798 3.91509C6.81798 5.29161 7.48086 6.48711 8.45425 7.09075L7.32548 7.61388L4.32169 9.00702C4.03151 9.15213 3.88668 9.39817 3.88668 9.74641V13.0546C3.91055 13.4682 4.15872 13.8537 4.56107 13.8602H15.2475C15.7068 13.8203 15.9392 13.4503 15.9437 13.0546V9.74641C15.9437 9.39817 15.7989 9.15213 15.5087 9.00702L12.6137 7.61388L11.4105 7.04388C12.344 6.42666 12.9743 5.257 12.9743 3.9151C12.9743 1.93028 11.5962 0.321289 9.89614 0.321289ZM4.93107 1.58506C4.19948 1.61285 3.61968 1.92941 3.17917 2.43383C2.69192 3.04113 2.45438 3.76218 2.44979 4.47948C2.47971 5.54015 2.9543 6.54427 3.79918 7.0695L0.426017 8.63702C0.193855 8.72408 0.0778809 8.92719 0.0778809 9.2464V11.9014C0.096009 12.2536 0.278837 12.5495 0.621643 12.5546H2.86354V9.74641C2.90064 8.99564 3.2532 8.38879 3.88668 8.09265L6.12797 7.0264C6.30208 6.92482 6.469 6.78675 6.6286 6.61264C5.7045 5.1868 5.57617 3.47902 6.17173 1.97695C5.78438 1.73989 5.34906 1.58754 4.93107 1.58506ZM14.9424 1.58506C14.464 1.59508 14.0219 1.77126 13.6587 2.02007C14.238 3.53574 14.0782 5.24458 13.2231 6.56888C13.4117 6.78652 13.6081 6.95344 13.8112 7.06953L15.9656 8.09265C16.6219 8.4526 16.9603 9.06483 16.9669 9.74642V12.5546H19.2738C19.6531 12.5218 19.8148 12.2192 19.8181 11.9015V9.24642C19.8181 8.95622 19.7022 8.75313 19.47 8.63702L16.14 7.04764C17.0036 6.41088 17.4372 5.45657 17.4456 4.47948C17.4226 3.70612 17.1864 2.98803 16.7162 2.43383C16.2249 1.90086 15.6155 1.5907 14.9424 1.58506Z" fill="#2C3550"/>
</svg>
