<svg width="23" height="23" viewBox="0 0 23 23" fill="none" xmlns="http://www.w3.org/2000/svg">
<path d="M11.4998 21.0837C16.7926 21.0837 21.0832 16.7931 21.0832 11.5003C21.0832 6.2076 16.7926 1.91699 11.4998 1.91699C6.20711 1.91699 1.9165 6.2076 1.9165 11.5003C1.9165 16.7931 6.20711 21.0837 11.4998 21.0837Z" stroke="#767676" stroke-width="1.5" stroke-linecap="round" stroke-linejoin="round"/>
<path d="M8.71143 8.62506C8.93673 7.98457 9.38145 7.44449 9.9668 7.10048C10.5522 6.75646 11.2404 6.63071 11.9096 6.74549C12.5787 6.86027 13.1857 7.20818 13.623 7.7276C14.0602 8.24703 14.2995 8.90443 14.2985 9.58339C14.2985 11.5001 11.4235 12.4584 11.4235 12.4584V14.0897" stroke="#767676" stroke-width="1.5" stroke-linecap="round" stroke-linejoin="round"/>
<path d="M11.5 16.292H11.5104" stroke="#767676" stroke-width="1.5" stroke-linecap="round" stroke-linejoin="round"/>
</svg>
