<svg width="23" height="23" viewBox="0 0 23 23" fill="none" xmlns="http://www.w3.org/2000/svg">
<path d="M8.62508 19.1665H6.70841C5.64987 19.1665 4.79175 18.3084 4.79175 17.2499V10.4648C4.79175 9.90519 5.03625 9.37362 5.46107 9.00949L10.2527 4.90234C10.9705 4.28711 12.0297 4.28711 12.7474 4.90234L17.5391 9.00949C17.9639 9.37362 18.2084 9.90519 18.2084 10.4648V17.2499C18.2084 18.3084 17.3503 19.1665 16.2917 19.1665H14.3751M8.62508 19.1665V13.4165C8.62508 12.8872 9.05415 12.4582 9.58341 12.4582H13.4167C13.946 12.4582 14.3751 12.8872 14.3751 13.4165V19.1665M8.62508 19.1665H14.3751" stroke="#5669FF" stroke-width="1.83333" stroke-linecap="round" stroke-linejoin="round"/>
</svg>
