<svg width="22" height="22" viewBox="0 0 22 22" fill="none" xmlns="http://www.w3.org/2000/svg">
<path d="M8.66667 12.7669C8.11438 12.7669 7.66667 13.2146 7.66667 13.7669V20C7.66667 20.5523 7.21895 21 6.66667 21H2C1.44771 21 1 20.5523 1 20V11.3612C1 11.095 1.10611 10.8398 1.29483 10.6522L10.2948 1.70132C10.6849 1.31337 11.3151 1.31337 11.7052 1.70132L20.7052 10.6522C20.8939 10.8398 21 11.095 21 11.3612V20C21 20.5523 20.5523 21 20 21H15.3333C14.781 21 14.3333 20.5523 14.3333 20V13.7669C14.3333 13.2146 13.8856 12.7669 13.3333 12.7669H8.66667Z" stroke="#F68B29" stroke-width="2" stroke-linecap="round" stroke-linejoin="round"/>
</svg>
