<svg width="24" height="24" viewBox="0 0 24 24" fill="none" xmlns="http://www.w3.org/2000/svg">
<g clip-path="url(#clip0_264_766)">
<g opacity="0.7">
<path d="M18.001 1H13.501C13.302 1 13.1113 1.07902 12.9706 1.21967C12.83 1.36032 12.751 1.55109 12.751 1.75C12.751 1.94891 12.83 2.13968 12.9706 2.28033C13.1113 2.42098 13.302 2.5 13.501 2.5H16.1906L12.2466 6.44406C10.7568 5.22632 8.856 4.62773 6.93728 4.77209C5.01856 4.91646 3.22871 5.79275 1.93794 7.21971C0.647158 8.64667 -0.0458108 10.5151 0.00235239 12.4387C0.0505156 14.3622 0.836127 16.1937 2.1967 17.5543C3.55728 18.9148 5.38873 19.7004 7.31227 19.7486C9.23581 19.7968 11.1043 19.1038 12.5312 17.813C13.9582 16.5222 14.8345 14.7324 14.9789 12.8137C15.1232 10.895 14.5246 8.99415 13.3069 7.50437L17.251 3.56125V6.25C17.251 6.44891 17.33 6.63968 17.4706 6.78033C17.6113 6.92098 17.802 7 18.001 7C18.1999 7 18.3906 6.92098 18.5313 6.78033C18.6719 6.63968 18.751 6.44891 18.751 6.25V1.75C18.751 1.55109 18.6719 1.36032 18.5313 1.21967C18.3906 1.07902 18.1999 1 18.001 1ZM11.7422 16.4959C10.903 17.3348 9.83388 17.906 8.67007 18.1373C7.50626 18.3685 6.3 18.2496 5.2038 17.7954C4.1076 17.3412 3.17068 16.5721 2.51151 15.5855C1.85234 14.5988 1.50052 13.4389 1.50052 12.2523C1.50052 11.0658 1.85234 9.90584 2.51151 8.9192C3.17068 7.93257 4.1076 7.16353 5.2038 6.70932C6.3 6.25512 7.50626 6.13614 8.67007 6.36743C9.83388 6.59873 10.903 7.1699 11.7422 8.00875C12.8657 9.13526 13.4966 10.6613 13.4966 12.2523C13.4966 13.8433 12.8657 15.3694 11.7422 16.4959Z" fill="#807A7A"/>
</g>
</g>
<defs>
<clipPath id="clip0_264_766">
<rect width="24" height="24" fill="white"/>
</clipPath>
</defs>
</svg>
