<svg width="17" height="18" viewBox="0 0 17 18" fill="none" xmlns="http://www.w3.org/2000/svg">
<path d="M13.25 12.56C12.68 12.56 12.17 12.785 11.78 13.1375L6.4325 10.025C6.47 9.8525 6.5 9.68 6.5 9.5C6.5 9.32 6.47 9.1475 6.4325 8.975L11.72 5.8925C12.125 6.2675 12.6575 6.5 13.25 6.5C14.495 6.5 15.5 5.495 15.5 4.25C15.5 3.005 14.495 2 13.25 2C12.005 2 11 3.005 11 4.25C11 4.43 11.03 4.6025 11.0675 4.775L5.78 7.8575C5.375 7.4825 4.8425 7.25 4.25 7.25C3.005 7.25 2 8.255 2 9.5C2 10.745 3.005 11.75 4.25 11.75C4.8425 11.75 5.375 11.5175 5.78 11.1425L11.12 14.2625C11.0825 14.42 11.06 14.585 11.06 14.75C11.06 15.9575 12.0425 16.94 13.25 16.94C14.4575 16.94 15.44 15.9575 15.44 14.75C15.44 13.5425 14.4575 12.56 13.25 12.56Z" fill="#716E90"/>
</svg>
