<svg width="31" height="31" viewBox="0 0 31 31" fill="none" xmlns="http://www.w3.org/2000/svg">
<path d="M6.10352e-05 15.3771C6.10352e-05 6.88435 6.88484 -0.000427246 15.3776 -0.000427246C23.8704 -0.000427246 30.7552 6.88435 30.7552 15.3771C30.7552 23.8699 23.8704 30.7547 15.3776 30.7547C6.88484 30.7547 6.10352e-05 23.8699 6.10352e-05 15.3771Z" fill="white"/>
<g clip-path="url(#clip0_264_1147)">
<path d="M25.5625 2.60935H4.4375C3.95819 2.60447 3.49652 2.78994 3.15379 3.12505C2.81106 3.46016 2.61527 3.91755 2.60938 4.39685V25.6072C2.61633 26.0858 2.81259 26.5421 3.15521 26.8763C3.49782 27.2106 3.95888 27.3955 4.4375 27.3906H25.5625C26.0418 27.3944 26.5032 27.2083 26.8458 26.873C27.1883 26.5377 27.3842 26.0804 27.3906 25.6011V4.39076C27.3821 3.91286 27.1852 3.45766 26.8429 3.12408C26.5006 2.79051 26.0405 2.60553 25.5625 2.60935Z" fill="#0076B2"/>
<path d="M6.27779 11.8983H9.95638V23.7344H6.27779V11.8983ZM8.1181 6.00763C8.54002 6.00763 8.95246 6.13277 9.30324 6.36722C9.65402 6.60166 9.92739 6.93488 10.0888 7.32472C10.2501 7.71456 10.2922 8.1435 10.2098 8.55728C10.1273 8.97106 9.92399 9.35109 9.62551 9.64929C9.32703 9.94749 8.94681 10.1505 8.53295 10.2325C8.11909 10.3146 7.69019 10.2721 7.3005 10.1103C6.91082 9.94858 6.57786 9.6749 6.34375 9.32389C6.10964 8.97289 5.98489 8.56033 5.98529 8.13841C5.98583 7.57311 6.21077 7.03114 6.6107 6.6316C7.01062 6.23206 7.5528 6.00763 8.1181 6.00763ZM12.2639 11.8983H15.7901V13.5233H15.8389C16.3304 12.5929 17.5289 11.6119 19.3184 11.6119C23.0437 11.6037 23.7344 14.0554 23.7344 17.2344V23.7344H20.0558V17.9758C20.0558 16.6047 20.0314 14.8395 18.1444 14.8395C16.2573 14.8395 15.9364 16.3345 15.9364 17.8864V23.7344H12.2639V11.8983Z" fill="white"/>
</g>
<defs>
<clipPath id="clip0_264_1147">
<rect width="26" height="26" fill="white" transform="translate(2 1.99998)"/>
</clipPath>
</defs>
</svg>
