<svg width="18" height="18" viewBox="0 0 18 18" fill="none" xmlns="http://www.w3.org/2000/svg">
<path d="M12 3C12.1989 3 12.3897 3.07902 12.5303 3.21967C12.671 3.36032 12.75 3.55109 12.75 3.75V6.9L16.6597 4.1625C16.716 4.12309 16.7819 4.09987 16.8504 4.09538C16.9189 4.09088 16.9874 4.10528 17.0483 4.137C17.1091 4.16872 17.1602 4.21654 17.1957 4.27526C17.2313 4.33398 17.2501 4.40134 17.25 4.47V13.53C17.2501 13.5987 17.2313 13.666 17.1957 13.7247C17.1602 13.7835 17.1091 13.8313 17.0483 13.863C16.9874 13.8947 16.9189 13.9091 16.8504 13.9046C16.7819 13.9001 16.716 13.8769 16.6597 13.8375L12.75 11.1V14.25C12.75 14.4489 12.671 14.6397 12.5303 14.7803C12.3897 14.921 12.1989 15 12 15H1.5C1.30109 15 1.11032 14.921 0.96967 14.7803C0.829018 14.6397 0.75 14.4489 0.75 14.25V3.75C0.75 3.55109 0.829018 3.36032 0.96967 3.21967C1.11032 3.07902 1.30109 3 1.5 3H12ZM11.25 4.5H2.25V13.5H11.25V4.5ZM5.55 6.62175C5.60708 6.62159 5.66302 6.63773 5.71125 6.66825L8.9775 8.7465C9.02009 8.77359 9.05515 8.81099 9.07945 8.85524C9.10374 8.89949 9.11648 8.94915 9.11648 8.99963C9.11648 9.0501 9.10374 9.09976 9.07945 9.14401C9.05515 9.18826 9.02009 9.22566 8.9775 9.25275L5.71125 11.3325C5.66576 11.3615 5.61329 11.3777 5.55936 11.3794C5.50544 11.3811 5.45206 11.3682 5.40484 11.3421C5.35763 11.316 5.31833 11.2776 5.29108 11.2311C5.26383 11.1845 5.24964 11.1314 5.25 11.0775V6.9225C5.25 6.84293 5.28161 6.76663 5.33787 6.71037C5.39413 6.65411 5.47043 6.62175 5.55 6.62175ZM15.75 6.63L12.75 8.73V9.2685L15.75 11.3685V6.63Z" fill="#716E90"/>
</svg>
