<svg width="16" height="16" viewBox="0 0 16 16" fill="none" xmlns="http://www.w3.org/2000/svg">
<path d="M14 6.66663C14 10.0816 10.7869 13.1396 9.06335 14.5344C8.4357 15.0422 7.5643 15.0422 6.93665 14.5344C5.21308 13.1396 2 10.0816 2 6.66663C2 5.07533 2.63214 3.5492 3.75736 2.42399C4.88258 1.29877 6.4087 0.666626 8 0.666626C9.5913 0.666626 11.1174 1.29877 12.2426 2.42399C13.3679 3.5492 14 5.07533 14 6.66663Z" fill="#716E90"/>
<path d="M8 8.66663C9.10457 8.66663 10 7.7712 10 6.66663C10 5.56206 9.10457 4.66663 8 4.66663C6.89543 4.66663 6 5.56206 6 6.66663C6 7.7712 6.89543 8.66663 8 8.66663Z" fill="white"/>
</svg>
