<svg width="18" height="22" viewBox="0 0 18 22" fill="none" xmlns="http://www.w3.org/2000/svg">
<path fill-rule="evenodd" clip-rule="evenodd" d="M4.41453 1.17096C7.1456 -0.415907 10.5025 -0.388171 13.208 1.24362C15.8868 2.90864 17.515 5.88022 17.4998 9.0768C17.4374 12.2524 15.6916 15.2375 13.5093 17.5451C12.2498 18.883 10.8408 20.066 9.31106 21.07C9.15351 21.1611 8.98094 21.2221 8.80186 21.25C8.6295 21.2427 8.46165 21.1917 8.31344 21.1018C5.97803 19.5932 3.92917 17.6675 2.26542 15.4175C0.873236 13.5392 0.0822946 11.27 1.45217e-06 8.91802C-0.00180584 5.71531 1.68346 2.75784 4.41453 1.17096ZM5.9929 10.2432C6.45231 11.3757 7.53668 12.1145 8.7397 12.1145C9.52783 12.1202 10.2854 11.8045 10.8437 11.2378C11.402 10.6711 11.7146 9.90049 11.7118 9.09766C11.716 7.87223 10.9945 6.76508 9.88428 6.29316C8.77404 5.82123 7.494 6.07763 6.64185 6.94262C5.78969 7.80762 5.5335 9.11059 5.9929 10.2432Z" fill="#5669FF"/>
</svg>
