<svg width="34" height="34" viewBox="0 0 34 34" fill="none" xmlns="http://www.w3.org/2000/svg">
<path d="M9.60543 19.5716C9.3212 18.744 9.17467 17.8754 9.17168 17.0004C9.17686 16.1267 9.31814 15.2592 9.59043 14.4291L5.38668 11.1654C4.47492 12.9755 4 14.9742 4 17.001C4 19.0278 4.47492 21.0264 5.38668 22.8366L9.60543 19.5716Z" fill="#F0B501"/>
<path d="M28.3334 5.66666H5.66671C4.10837 5.66666 2.84754 6.94166 2.84754 8.5L2.83337 25.5C2.83337 27.0583 4.10837 28.3333 5.66671 28.3333H28.3334C29.8917 28.3333 31.1667 27.0583 31.1667 25.5V8.5C31.1667 6.94166 29.8917 5.66666 28.3334 5.66666ZM28.3334 11.3333L17 18.4167L5.66671 11.3333V8.5L17 15.5833L28.3334 8.5V11.3333Z" fill="#1977F3"/>
</svg>
