<svg width="22" height="22" viewBox="0 0 22 22" fill="none" xmlns="http://www.w3.org/2000/svg">
<g clip-path="url(#clip0_643_6106)">
<g clip-path="url(#clip1_643_6106)">
<path d="M14.1345 2.60747L5.90292 0.836543C5.79841 0.809835 5.68959 0.804443 5.58296 0.820689C5.47632 0.836935 5.37405 0.874487 5.28223 0.931104C5.19042 0.987722 5.11095 1.06225 5.04855 1.15024C4.98616 1.23823 4.94212 1.33788 4.91906 1.44325L2.689 11.9541L1.03285 19.6773C0.988772 19.8837 1.0277 20.0992 1.14124 20.2772C1.25477 20.4552 1.43377 20.5813 1.63956 20.6283L3.60726 21.0547C3.71063 21.0763 3.81724 21.0773 3.921 21.0577C4.02475 21.038 4.12363 20.9981 4.21195 20.9403C4.30028 20.8824 4.37634 20.8077 4.43577 20.7204C4.4952 20.6331 4.53685 20.535 4.55832 20.4316L6.19807 12.7575L11.8388 13.971C12.679 14.1516 13.549 14.1424 14.3852 13.9439C15.2214 13.7455 16.0027 13.3628 16.6721 12.8238C17.3415 12.2848 17.8821 11.6031 18.2544 10.8286C18.6267 10.054 18.8214 9.20602 18.8242 8.34661C18.8185 6.99742 18.3496 5.69111 17.4959 4.64636C16.6422 3.6016 15.4555 2.88181 14.1345 2.60747ZM11.9044 10.2487L6.98515 9.18288L7.88701 4.91952L12.8063 5.98536C13.3673 6.10713 13.8569 6.44677 14.1675 6.92957C14.4781 7.41236 14.5842 7.99877 14.4624 8.55977C14.3406 9.12078 14.001 9.61044 13.5182 9.92103C13.0354 10.2316 12.449 10.3377 11.888 10.2159L11.9044 10.2487Z" stroke="#767676" stroke-width="1.71429" stroke-linecap="round" stroke-linejoin="round"/>
<path d="M8 22L8.97697 17.1355L13.7042 18.1923C17.2339 19.0142 20.9527 15.0723 21 10.9961C21.0006 10.3167 20.8941 9.64192 20.6848 9" stroke="#767676" stroke-width="1.71429" stroke-linecap="round" stroke-linejoin="round"/>
</g>
</g>
<defs>
<clipPath id="clip0_643_6106">
<rect width="22" height="22" fill="white"/>
</clipPath>
<clipPath id="clip1_643_6106">
<rect width="22.9565" height="22.9565" fill="white"/>
</clipPath>
</defs>
</svg>
