<svg width="24" height="24" viewBox="0 0 24 24" fill="none" xmlns="http://www.w3.org/2000/svg">
<g opacity="0.7">
<path d="M19.2857 12.7143H15.7143V16.2857C15.7143 16.6786 15.3929 17 15 17C14.6071 17 14.2857 16.6786 14.2857 16.2857V12.7143H10.7143C10.3214 12.7143 10 12.3929 10 12C10 11.6071 10.3214 11.2857 10.7143 11.2857H14.2857V7.71429C14.2857 7.32143 14.6071 7 15 7C15.3929 7 15.7143 7.32143 15.7143 7.71429V11.2857H19.2857C19.6786 11.2857 20 11.6071 20 12C20 12.3929 19.6786 12.7143 19.2857 12.7143Z" fill="black"/>
</g>
</svg>
