<svg width="23" height="23" viewBox="0 0 23 23" fill="none" xmlns="http://www.w3.org/2000/svg">
<path fill-rule="evenodd" clip-rule="evenodd" d="M16.5351 7.09184C16.5351 9.95011 14.282 12.2672 11.5026 12.2672C8.7232 12.2672 6.47007 9.95011 6.47007 7.09184C6.47007 4.23358 8.7232 1.9165 11.5026 1.9165C14.282 1.9165 16.5351 4.23358 16.5351 7.09184ZM15.8221 15.1831C17.4222 15.5071 18.4668 16.0357 18.9145 16.8883C19.2508 17.5538 19.2508 18.3459 18.9145 19.0113C18.4668 19.8639 17.4637 20.4267 15.8055 20.7166C15.0666 20.8655 14.3187 20.9624 13.567 21.0064C12.8706 21.0832 12.1741 21.0832 11.4694 21.0832H10.2009C9.93562 21.0491 9.67861 21.032 9.42988 21.032C8.67813 20.9933 7.93005 20.8993 7.19137 20.7507C5.59125 20.4437 4.54661 19.898 4.09891 19.0454C3.92608 18.7152 3.83496 18.3462 3.8336 17.9711C3.83 17.5938 3.91836 17.2215 4.09062 16.8883C4.53003 16.0357 5.57467 15.4815 7.19137 15.1831C7.9333 15.0375 8.68394 14.9435 9.43817 14.9018C10.8179 14.7906 12.2039 14.7906 13.5836 14.9018C14.3349 14.9455 15.0826 15.0395 15.8221 15.1831Z" fill="#2C3550"/>
</svg>
