<svg width="29" height="29" viewBox="0 0 29 29" fill="none" xmlns="http://www.w3.org/2000/svg">
<path fill-rule="evenodd" clip-rule="evenodd" d="M4.50002 10.2127L8.8072 8.69252C7.91793 9.88981 7.15395 11.1757 6.52752 12.5299L4.50002 10.2127ZM1.50725 10.4623L5.49771 15.0228L4.9197 16.4679C4.74019 16.9166 4.8454 17.4292 5.18719 17.7711L5.56615 18.15C3.50825 20.4705 2.37155 22.8974 1.27029 26.2012C1.12556 26.6354 1.23856 27.1141 1.56219 27.4377C1.88583 27.7613 2.36453 27.8744 2.79873 27.7297C6.10248 26.6284 8.52944 25.4917 10.8499 23.4338L11.2289 23.8127C11.5707 24.1546 12.0832 24.2597 12.5321 24.0802L13.9771 23.5022L18.5376 27.4927C18.8392 27.7566 19.252 27.8538 19.6396 27.7521C20.0273 27.6505 20.3393 27.3634 20.4727 26.9854L24.0809 16.7622C26.4597 13.9475 27.7916 10.3612 27.7916 6.62259V2.41665C27.7916 1.74931 27.2506 1.20831 26.5833 1.20831H22.3773C18.6387 1.20831 15.0524 2.5402 12.2377 4.91898L2.01446 8.5272C1.63656 8.66058 1.34937 8.97264 1.24777 9.36028C1.14616 9.74794 1.24336 10.1607 1.50725 10.4623ZM4.45298 24.5469C5.21121 22.7157 6.06216 21.2581 7.27842 19.8623L9.13764 21.7215C7.7419 22.9378 6.28429 23.7887 4.45298 24.5469ZM12.3742 21.5405L11.7294 20.8956L8.10437 17.2706L7.45944 16.6257L8.31723 14.4811C9.10432 12.5135 10.2096 10.6885 11.5888 9.07941L12.2856 8.26654C14.8107 5.3205 18.4971 3.62498 22.3773 3.62498H25.3749V6.62259C25.3749 10.5028 23.6794 14.1892 20.7334 16.7144L19.9205 17.4111C18.3114 18.7903 16.4864 19.8955 14.5188 20.6827L12.3742 21.5405ZM18.7872 24.4999L16.47 22.4724C17.8243 21.846 19.1101 21.082 20.3074 20.1927L18.7872 24.4999ZM18.1249 9.66665C18.1249 8.99931 18.6659 8.45831 19.3333 8.45831C20.0006 8.45831 20.5416 8.99931 20.5416 9.66665C20.5416 10.334 20.0006 10.875 19.3333 10.875C18.6659 10.875 18.1249 10.334 18.1249 9.66665ZM19.3333 6.04165C17.3312 6.04165 15.7083 7.66462 15.7083 9.66665C15.7083 11.6687 17.3312 13.2916 19.3333 13.2916C21.3354 13.2916 22.9583 11.6687 22.9583 9.66665C22.9583 7.66462 21.3354 6.04165 19.3333 6.04165Z" fill="#D8D8D8"/>
</svg>
