<svg width="23" height="23" viewBox="0 0 23 23" fill="none" xmlns="http://www.w3.org/2000/svg">
<path opacity="0.01" fill-rule="evenodd" clip-rule="evenodd" d="M0 0V23H23V0H0Z" fill="#1C8FF8" fill-opacity="0.338428"/>
<path fill-rule="evenodd" clip-rule="evenodd" d="M11.2605 14.4185C12.7401 14.4185 13.9395 13.2191 13.9395 11.7395C13.9395 10.26 12.7401 9.06055 11.2605 9.06055C9.78096 9.06055 8.58154 10.26 8.58154 11.7395C8.58154 13.2191 9.78096 14.4185 11.2605 14.4185Z" stroke="#767676" stroke-width="1.5" stroke-linecap="round" stroke-linejoin="round"/>
<path fill-rule="evenodd" clip-rule="evenodd" d="M17.8686 14.4189C17.6254 14.9699 17.7421 15.6135 18.1632 16.0441L18.2168 16.0977C18.5522 16.4327 18.7406 16.8873 18.7406 17.3613C18.7406 17.8353 18.5522 18.2899 18.2168 18.6249C17.8818 18.9602 17.4273 19.1487 16.9532 19.1487C16.4792 19.1487 16.0247 18.9602 15.6897 18.6249L15.6361 18.5713C15.2055 18.1501 14.5619 18.0334 14.0108 18.2766C13.471 18.508 13.1202 19.0378 13.1178 19.625V19.7768C13.1178 20.7632 12.3182 21.5628 11.3319 21.5628C10.3455 21.5628 9.54587 20.7632 9.54587 19.7768V19.6965C9.53172 19.0916 9.14927 18.5569 8.58144 18.3481C8.03038 18.1048 7.38678 18.2215 6.95619 18.6427L6.90261 18.6963C6.56762 19.0317 6.11305 19.2201 5.63903 19.2201C5.16501 19.2201 4.71044 19.0317 4.37544 18.6963C4.04008 18.3613 3.85164 17.9068 3.85164 17.4327C3.85164 16.9587 4.04008 16.5041 4.37544 16.1692L4.42902 16.1156C4.85022 15.685 4.96692 15.0414 4.72371 14.4903C4.49237 13.9505 3.96256 13.5997 3.37529 13.5973H3.22348C2.23711 13.5973 1.4375 12.7977 1.4375 11.8113C1.4375 10.825 2.23711 10.0254 3.22348 10.0254H3.30385C3.9087 10.0112 4.44343 9.62876 4.65227 9.06093C4.89548 8.50987 4.77878 7.86627 4.35759 7.43569L4.30401 7.38211C3.96864 7.04711 3.7802 6.59254 3.7802 6.11852C3.7802 5.6445 3.96864 5.18993 4.30401 4.85494C4.639 4.51957 5.09357 4.33113 5.56759 4.33113C6.04161 4.33113 6.49618 4.51957 6.83117 4.85494L6.88475 4.90852C7.31534 5.32971 7.95894 5.44641 8.51 5.2032H8.58144C9.12123 4.97186 9.47209 4.44206 9.47443 3.85479V3.70298C9.47443 2.7166 10.274 1.91699 11.2604 1.91699C12.2468 1.91699 13.0464 2.7166 13.0464 3.70298V3.78335C13.0487 4.37062 13.3996 4.90042 13.9394 5.13176C14.4905 5.37497 15.1341 5.25827 15.5646 4.83708L15.6182 4.7835C15.9532 4.44813 16.4078 4.25969 16.8818 4.25969C17.3558 4.25969 17.8104 4.44813 18.1454 4.7835C18.4808 5.11849 18.6692 5.57307 18.6692 6.04708C18.6692 6.5211 18.4808 6.97567 18.1454 7.31067L18.0918 7.36425C17.6706 7.79483 17.5539 8.43844 17.7971 8.98949V9.06093C18.0285 9.60072 18.5583 9.95158 19.1455 9.95392H19.2973C20.2837 9.95392 21.0833 10.7535 21.0833 11.7399C21.0833 12.7263 20.2837 13.5259 19.2973 13.5259H19.217C18.6297 13.5282 18.0999 13.8791 17.8686 14.4189Z" stroke="#767676" stroke-width="1.5" stroke-linecap="round" stroke-linejoin="round"/>
</svg>
