<svg width="18" height="18" viewBox="0 0 18 18" fill="none" xmlns="http://www.w3.org/2000/svg">
<g clip-path="url(#clip0_670_13243)">
<g clip-path="url(#clip1_670_13243)">
<path d="M14.25 12.5073C13.68 12.5073 13.17 12.7323 12.78 13.0848L7.4325 9.97227C7.47 9.79977 7.5 9.62727 7.5 9.44727C7.5 9.26727 7.47 9.09477 7.4325 8.92227L12.72 5.83977C13.125 6.21477 13.6575 6.44727 14.25 6.44727C15.495 6.44727 16.5 5.44227 16.5 4.19727C16.5 2.95227 15.495 1.94727 14.25 1.94727C13.005 1.94727 12 2.95227 12 4.19727C12 4.37727 12.03 4.54977 12.0675 4.72227L6.78 7.80477C6.375 7.42977 5.8425 7.19727 5.25 7.19727C4.005 7.19727 3 8.20227 3 9.44727C3 10.6923 4.005 11.6973 5.25 11.6973C5.8425 11.6973 6.375 11.4648 6.78 11.0898L12.12 14.2098C12.0825 14.3673 12.06 14.5323 12.06 14.6973C12.06 15.9048 13.0425 16.8873 14.25 16.8873C15.4575 16.8873 16.44 15.9048 16.44 14.6973C16.44 13.4898 15.4575 12.5073 14.25 12.5073Z" fill="#716E90"/>
</g>
</g>
<defs>
<clipPath id="clip0_670_13243">
<rect width="18" height="18" fill="white"/>
</clipPath>
<clipPath id="clip1_670_13243">
<rect width="18" height="18" fill="white" transform="translate(0 -0.0527344)"/>
</clipPath>
</defs>
</svg>
