<svg width="9" height="7" viewBox="0 0 9 7" fill="none" xmlns="http://www.w3.org/2000/svg">
<path d="M2.6348 6.37765L0.147423 3.89182C0.0530231 3.79727 0 3.66912 0 3.53551C0 3.4019 0.0530231 3.27375 0.147423 3.1792L0.449619 2.87662C0.544171 2.78222 0.672317 2.7292 0.805926 2.7292C0.939536 2.7292 1.06769 2.78222 1.16224 2.87662L2.97036 4.68357L7.22862 0.15842C7.32025 0.0611989 7.44671 0.00430759 7.58024 0.000234685C7.71378 -0.00383822 7.84347 0.0452402 7.94085 0.136697L8.25119 0.42958C8.34853 0.521222 8.4055 0.647765 8.40957 0.781393C8.41364 0.915022 8.36449 1.0448 8.27292 1.1422L3.35945 6.3664C3.31319 6.4157 3.25748 6.4552 3.19565 6.48255C3.13381 6.50989 3.06711 6.52453 2.99951 6.52557C2.93191 6.52662 2.86478 6.51407 2.80213 6.48866C2.73948 6.46324 2.68257 6.42549 2.6348 6.37765Z" fill="white"/>
</svg>
