<svg width="22" height="21" viewBox="0 0 22 21" fill="none" xmlns="http://www.w3.org/2000/svg">
<path opacity="0.3" d="M20.4853 18.2109H1.52225C0.940416 18.2109 0.46875 18.6826 0.46875 19.2644V19.2644C0.46875 19.8463 0.940416 20.3179 1.52225 20.3179H20.4853C21.0671 20.3179 21.5387 19.8463 21.5387 19.2644C21.5387 18.6826 21.0671 18.2109 20.4853 18.2109Z" fill="#00F8FF"/>
<path d="M6.31388 5.92927C5.98142 6.3282 5.40784 6.42537 4.96253 6.15824L2.06426 4.41925C1.36209 3.99793 0.46875 4.50373 0.46875 5.32261V15.0504C0.46875 15.6322 0.94042 16.1039 1.52225 16.1039H20.4852C21.0671 16.1039 21.5387 15.6322 21.5387 15.0504V5.32261C21.5387 4.50373 20.6454 3.99793 19.9432 4.41925L17.0449 6.15824C16.5996 6.42537 16.0261 6.3282 15.6936 5.92927L11.813 1.27262C11.3918 0.7672 10.6156 0.7672 10.1944 1.27262L6.31388 5.92927Z" fill="#00F8FF"/>
</svg>
