<svg width="46" height="46" viewBox="0 0 46 46" fill="none" xmlns="http://www.w3.org/2000/svg">
<path d="M24.4375 38.8125V30.1875H30.1875L23 21.5625L15.8125 30.1875H21.5625V38.8125H14.375V38.7406C14.1335 38.755 13.9035 38.8125 13.6562 38.8125C10.7969 38.8125 8.05463 37.6766 6.03275 35.6547C4.01088 33.6329 2.875 30.8906 2.875 28.0312C2.875 22.4998 7.05812 17.9918 12.4257 17.3736C12.8964 14.9135 14.2095 12.6942 16.1394 11.0975C18.0693 9.50081 20.4952 8.62652 23 8.625C25.5051 8.6264 27.9315 9.50059 29.8618 11.0972C31.7922 12.6939 33.1059 14.9132 33.5771 17.3736C38.9447 17.9918 43.1221 22.4998 43.1221 28.0312C43.1221 30.8906 41.9862 33.6329 39.9644 35.6547C37.9425 37.6766 35.2002 38.8125 32.3409 38.8125C32.0994 38.8125 31.8665 38.755 31.6221 38.7406V38.8125H24.4375Z" fill="black"/>
<path d="M24.4375 38.8125V30.1875H30.1875L23 21.5625L15.8125 30.1875H21.5625V38.8125H14.375V38.7406C14.1335 38.755 13.9035 38.8125 13.6562 38.8125C10.7969 38.8125 8.05463 37.6766 6.03275 35.6547C4.01088 33.6329 2.875 30.8906 2.875 28.0312C2.875 22.4998 7.05812 17.9918 12.4257 17.3736C12.8964 14.9135 14.2095 12.6942 16.1394 11.0975C18.0693 9.50081 20.4952 8.62652 23 8.625C25.5051 8.6264 27.9315 9.50059 29.8618 11.0972C31.7922 12.6939 33.1059 14.9132 33.5771 17.3736C38.9447 17.9918 43.1221 22.4998 43.1221 28.0312C43.1221 30.8906 41.9862 33.6329 39.9644 35.6547C37.9425 37.6766 35.2002 38.8125 32.3409 38.8125C32.0994 38.8125 31.8665 38.755 31.6221 38.7406V38.8125H24.4375Z" fill="url(#paint0_linear_662_6777)"/>
<defs>
<linearGradient id="paint0_linear_662_6777" x1="2.875" y1="8.625" x2="42.3484" y2="30.1324" gradientUnits="userSpaceOnUse">
<stop stop-color="#6C55FE"/>
<stop offset="1" stop-color="#6C55FD"/>
</linearGradient>
</defs>
</svg>
