<svg width="22" height="23" viewBox="0 0 22 23" fill="none" xmlns="http://www.w3.org/2000/svg">
<path d="M13.7321 12.792C14.5417 13.0674 15.2708 13.4511 15.9196 13.9433C16.5685 14.4355 17.122 15.0097 17.5804 15.666C18.0387 16.3222 18.3899 17.0341 18.6339 17.8017C18.878 18.5693 19 19.375 19 20.2187H17.8571C17.8571 19.2578 17.6845 18.3672 17.3393 17.5468C16.994 16.7265 16.5119 16.0117 15.8929 15.4023C15.2738 14.7929 14.5506 14.3213 13.7232 13.9873C12.8958 13.6533 11.9881 13.4804 11 13.4687C10.3631 13.4687 9.75 13.5478 9.16071 13.706C8.57143 13.8642 8.02381 14.0869 7.51786 14.374C7.0119 14.6611 6.5506 15.0097 6.13393 15.4199C5.71726 15.83 5.3631 16.2841 5.07143 16.7822C4.77976 17.2802 4.5506 17.8222 4.38393 18.4082C4.21726 18.9941 4.1369 19.5976 4.14286 20.2187H3C3 19.375 3.125 18.5693 3.375 17.8017C3.625 17.0341 3.97917 16.3252 4.4375 15.6748C4.89583 15.0244 5.4494 14.456 6.09821 13.9697C6.74702 13.4834 7.47619 13.0937 8.28571 12.8008C7.82143 12.5547 7.40476 12.2558 7.03571 11.9043C6.66667 11.5527 6.35417 11.1631 6.09821 10.7353C5.84226 10.3076 5.64286 9.84763 5.5 9.35544C5.35714 8.86325 5.28571 8.35934 5.28571 7.84372C5.28571 7.06442 5.43452 6.33493 5.73214 5.65524C6.02976 4.97556 6.4375 4.3779 6.95536 3.86227C7.47321 3.34665 8.07738 2.94528 8.76786 2.65817C9.45833 2.37106 10.2024 2.22458 11 2.21872C11.7917 2.21872 12.5327 2.3652 13.2232 2.65817C13.9137 2.95114 14.5208 3.35251 15.0446 3.86227C15.5685 4.37204 15.9762 4.96677 16.2679 5.64645C16.5595 6.32614 16.7083 7.05856 16.7143 7.84372C16.7143 8.35934 16.6458 8.86032 16.5089 9.34665C16.372 9.83298 16.1726 10.29 15.9107 10.7177C15.6488 11.1455 15.3363 11.5351 14.9732 11.8867C14.6101 12.2383 14.1964 12.54 13.7321 12.792ZM6.42857 7.84372C6.42857 8.46481 6.54762 9.04782 6.78571 9.59274C7.02381 10.1377 7.35119 10.6123 7.76786 11.0166C8.18452 11.4209 8.66964 11.7431 9.22321 11.9834C9.77679 12.2236 10.369 12.3437 11 12.3437C11.631 12.3437 12.2232 12.2265 12.7768 11.9922C13.3304 11.7578 13.8125 11.4355 14.2232 11.0254C14.6339 10.6152 14.9613 10.1377 15.2054 9.59274C15.4494 9.04782 15.5714 8.46481 15.5714 7.84372C15.5714 7.22263 15.4524 6.63962 15.2143 6.0947C14.9762 5.54977 14.6488 5.07516 14.2321 4.67087C13.8155 4.26657 13.3304 3.94431 12.7768 3.70407C12.2232 3.46384 11.631 3.34372 11 3.34372C10.369 3.34372 9.77679 3.46091 9.22321 3.69528C8.66964 3.92966 8.1875 4.25192 7.77679 4.66208C7.36607 5.07224 7.03869 5.54977 6.79464 6.0947C6.5506 6.63962 6.42857 7.22263 6.42857 7.84372Z" fill="#807A7A"/>
</svg>
