<svg width="36" height="36" viewBox="0 0 36 36" fill="none" xmlns="http://www.w3.org/2000/svg">
<path d="M1.12506 18.4243C1.12506 8.86993 8.87043 1.12455 18.4248 1.12455C27.9792 1.12455 35.7246 8.86993 35.7246 18.4243C35.7246 27.9787 27.9792 35.7241 18.4248 35.7241C8.87043 35.7241 1.12506 27.9787 1.12506 18.4243Z" fill="white"/>
<path d="M32.952 8.12109H28.9934C28.4484 8.12109 28.0195 8.56406 28.0406 9.10898L28.5012 21.9762H31.4684L33.7676 9.09492C33.8625 8.56055 33.4934 8.12109 32.952 8.12109ZM30.2309 23.9555H29.7352C28.7824 23.9555 28.0055 24.7359 28.0055 25.6887V26.1844C28.0055 27.1371 28.7859 27.9176 29.7352 27.9176H30.2309C31.1836 27.9176 31.9605 27.1371 31.9605 26.1844V25.6887C31.9605 24.7359 31.1801 23.9555 30.2309 23.9555ZM14.1539 8.12109C7.60078 8.12109 2.28516 12.5508 2.28516 18.0176C2.28516 23.4844 7.60078 27.9141 14.1539 27.9141C20.707 27.9141 26.0227 23.4844 26.0227 18.0176C26.0227 12.5508 20.7105 8.12109 14.1539 8.12109ZM22.0711 16.0383H19.7754L16.1332 19.6805V21.9762H19.1004V23.9555H11.1867V21.9762H14.1539V19.6805L8.53945 14.059H7.23867V12.0797H13.1625V14.059H11.8617L15.1453 17.3461L16.1332 16.3582V14.0625H22.0676V16.0383H22.0711Z" fill="black"/>
</svg>
